<?xml version="1.0" encoding="UTF-8"?>
<svg id="Layer_1" data-name="Layer 1" xmlns="http://www.w3.org/2000/svg" viewBox="0 0 1500 1000">
  <defs>
    <style>
      .cls-1 {
        fill: #fff;
      }

      .cls-2 {
        fill: #ae0000;
      }

      .cls-3 {
        fill: #e80000;
      }
    </style>
  </defs>
  <path d="M1445.66,1055.64H-83.47s0,0,0,0V-55.64h1666.94v973.48c0,76.11-61.7,137.81-137.81,137.81"/>
  <g>
    <path class="cls-1" d="M641.34,524.57l-11.94-42.66h8.84l8.17,31.63,8.9-31.63h7.19l8.96,31.63,8.17-31.63h8.84l-11.94,42.66h-9.57l-8.04-28.15-7.98,28.15h-9.57Z"/>
    <path class="cls-1" d="M707.45,493.25c3.33,0,6.08,1.12,8.26,3.35,2.17,2.23,3.26,5.32,3.26,9.26v18.71h-7.86v-17.73c0-2.03-.55-3.58-1.65-4.66-1.1-1.08-2.56-1.61-4.39-1.61-2.03,0-3.66.63-4.88,1.89-1.22,1.26-1.83,3.15-1.83,5.67v16.45h-7.86v-42.66h7.86v15.6c1.91-2.84,4.94-4.27,9.08-4.27Z"/>
    <path class="cls-1" d="M728.35,490.44c-1.3,0-2.43-.48-3.38-1.43-.95-.95-1.43-2.08-1.43-3.38s.48-2.44,1.43-3.41c.95-.97,2.08-1.46,3.38-1.46s2.49.49,3.44,1.46c.95.98,1.43,2.11,1.43,3.41s-.48,2.43-1.43,3.38c-.95.96-2.1,1.43-3.44,1.43ZM724.45,524.57v-30.47h7.86v30.47h-7.86Z"/>
    <path class="cls-1" d="M745.29,502.75c0,.81.54,1.47,1.61,1.98,1.08.51,2.39.95,3.93,1.34,1.54.39,3.09.87,4.63,1.46,1.54.59,2.85,1.57,3.93,2.96,1.08,1.38,1.62,3.11,1.62,5.18,0,3.13-1.17,5.54-3.5,7.22-2.34,1.69-5.25,2.53-8.74,2.53-6.26,0-10.52-2.42-12.8-7.25l6.82-3.84c.89,2.64,2.88,3.96,5.97,3.96,2.8,0,4.2-.87,4.2-2.62,0-.81-.54-1.47-1.62-1.98-1.08-.51-2.39-.96-3.93-1.37-1.54-.41-3.09-.91-4.63-1.52-1.54-.61-2.85-1.57-3.93-2.89-1.08-1.32-1.62-2.98-1.62-4.97,0-3.01,1.11-5.37,3.32-7.1,2.21-1.73,4.97-2.59,8.26-2.59,2.48,0,4.73.56,6.76,1.68,2.03,1.12,3.64,2.71,4.81,4.78l-6.7,3.66c-.97-2.07-2.6-3.11-4.88-3.11-1.02,0-1.86.22-2.53.67-.67.45-1,1.06-1,1.83Z"/>
    <path class="cls-1" d="M779.19,501.65h-6.89v12.67c0,1.06.26,1.83.79,2.32.53.49,1.3.76,2.32.82,1.01.06,2.27.05,3.78-.03v7.13c-5.4.61-9.21.1-11.43-1.52-2.21-1.62-3.32-4.53-3.32-8.71v-26.39l7.86-2.38v8.53h6.89v7.56Z"/>
    <path class="cls-1" d="M783.52,524.57v-44.48h7.86v44.48h-7.86Z"/>
    <path class="cls-1" d="M803.99,512.56c1.06,3.82,3.92,5.73,8.59,5.73,3.01,0,5.28-1.01,6.82-3.05l6.34,3.66c-3.01,4.35-7.43,6.52-13.28,6.52-5.04,0-9.08-1.52-12.13-4.57-3.05-3.05-4.57-6.89-4.57-11.52s1.5-8.42,4.51-11.49c3.01-3.07,6.86-4.6,11.58-4.6,4.47,0,8.15,1.54,11.06,4.63,2.9,3.09,4.36,6.91,4.36,11.46,0,1.02-.1,2.09-.3,3.23h-22.97ZM803.87,506.47h15.54c-.45-2.07-1.37-3.62-2.77-4.63-1.4-1.01-3-1.52-4.78-1.52-2.11,0-3.86.54-5.24,1.61-1.38,1.08-2.3,2.59-2.74,4.54Z"/>
    <path class="cls-1" d="M849.27,493.25c4.1,0,7.61,1.55,10.51,4.66,2.9,3.11,4.36,6.92,4.36,11.43s-1.45,8.32-4.36,11.43c-2.9,3.11-6.41,4.66-10.51,4.66s-7.56-1.48-9.87-4.45v3.6h-7.86v-42.66h7.86v15.78c2.32-2.97,5.61-4.45,9.87-4.45ZM841.77,515.52c1.58,1.61,3.6,2.41,6.03,2.41s4.46-.8,6.06-2.41c1.61-1.6,2.41-3.67,2.41-6.19s-.8-4.58-2.41-6.18c-1.61-1.6-3.63-2.41-6.06-2.41s-4.45.8-6.03,2.41c-1.58,1.61-2.38,3.67-2.38,6.18s.79,4.58,2.38,6.19Z"/>
    <path class="cls-1" d="M868.46,524.57v-44.48h7.86v44.48h-7.86Z"/>
    <path class="cls-1" d="M908.25,520.76c-3.13,3.11-6.95,4.66-11.46,4.66s-8.32-1.55-11.43-4.66c-3.11-3.11-4.66-6.92-4.66-11.43s1.55-8.32,4.66-11.43c3.11-3.11,6.92-4.66,11.43-4.66s8.33,1.55,11.46,4.66c3.13,3.11,4.69,6.92,4.69,11.43s-1.56,8.32-4.69,11.43ZM890.92,515.36c1.56,1.58,3.52,2.38,5.88,2.38s4.33-.79,5.91-2.38c1.58-1.58,2.38-3.6,2.38-6.03s-.79-4.45-2.38-6.03c-1.59-1.58-3.56-2.38-5.91-2.38s-4.32.79-5.88,2.38c-1.56,1.58-2.35,3.6-2.35,6.03s.78,4.45,2.35,6.03Z"/>
    <path class="cls-1" d="M950.36,494.1h8.35l-9.69,30.47h-7.5l-5.61-18.46-5.61,18.46h-7.5l-9.69-30.47h8.35l5.18,18.71,5.55-18.71h7.43l5.55,18.77,5.18-18.77Z"/>
    <path class="cls-1" d="M967.18,512.56c1.06,3.82,3.92,5.73,8.59,5.73,3.01,0,5.28-1.01,6.82-3.05l6.34,3.66c-3.01,4.35-7.43,6.52-13.28,6.52-5.04,0-9.08-1.52-12.13-4.57-3.05-3.05-4.57-6.89-4.57-11.52s1.5-8.42,4.51-11.49c3.01-3.07,6.86-4.6,11.58-4.6,4.47,0,8.15,1.54,11.06,4.63,2.9,3.09,4.36,6.91,4.36,11.46,0,1.02-.1,2.09-.3,3.23h-22.97ZM967.06,506.47h15.54c-.45-2.07-1.37-3.62-2.77-4.63-1.4-1.01-3-1.52-4.78-1.52-2.11,0-3.86.54-5.24,1.61-1.38,1.08-2.3,2.59-2.74,4.54Z"/>
    <path class="cls-1" d="M1002.58,499.34c.73-1.95,1.94-3.41,3.63-4.39,1.69-.97,3.56-1.46,5.64-1.46v8.77c-2.4-.28-4.54.2-6.43,1.46-1.89,1.26-2.83,3.35-2.83,6.28v14.56h-7.86v-30.47h7.86v5.24Z"/>
    <g>
      <g>
        <polygon class="cls-3" points="522.99 522.97 523.79 525.87 522.96 522.98 522.99 522.97"/>
        <path class="cls-2" d="M587.21,527.71c-1.17.57-2.44.85-3.81.85-1.11,0-2.26-.18-3.47-.53h-.02c.08-.03.16-.07.24-.1,4.96-2.44,1.39-19.88-7.97-38.96-9.37-19.07-20.98-32.56-25.95-30.12l-.24.13s.01-.02.02-.03c1.03-2.59,2.59-4.52,4.7-5.55,8.97-4.41,24.41,8.66,34.49,29.18,10.08,20.52,10.97,40.72,2.01,45.13Z"/>
        <g>
          <path class="cls-3" d="M576.98,527.79c-9.34-.61-18.74.03-27.92,1.91l-20.27,3.36-9.37-22.43,3.54,12.35.83,2.9,6.06,22.13c.41,1.43-.43,2.93-1.86,3.33l-8.84,2.5c-1.43.41-2.93-.43-3.34-1.87l-4-14.68-9.39,1.91c-2.1.43-4.23-.61-5.18-2.54l-8.6-17.53c-.95-1.92-.47-4.25,1.15-5.64l11.76-9.84,8.33,25.27-5.74-27.81,18.53-16,14.04,26.59-11.36-28.45c3.32-2.97,8.53-8.45,11.44-11.82,2.74-3.18,5.29-6.52,7.63-10.01-1.73,5.97,2.05,20.64,9.8,36.4,7.73,15.74,16.98,27.67,22.78,29.99Z"/>
          <line class="cls-3" x1="522.96" y1="522.98" x2="522.99" y2="522.97"/>
        </g>
      </g>
      <path class="cls-3" d="M578.49,459.74c-.67,0-1.33-.26-1.82-.79-.95-1.01-.9-2.59.11-3.53l9.23-8.67c1.01-.94,2.59-.9,3.53.11.95,1.01.9,2.59-.11,3.53l-9.23,8.67c-.48.45-1.1.68-1.71.68Z"/>
      <path class="cls-3" d="M599.69,505.16c-1.35,0-2.46-1.07-2.5-2.42-.04-1.38,1.04-2.53,2.42-2.58l14.37-.44c1.42-.02,2.53,1.04,2.58,2.42.04,1.38-1.04,2.53-2.42,2.58l-14.37.44s-.05,0-.08,0Z"/>
      <path class="cls-3" d="M594.85,478.88c-.94,0-1.84-.53-2.26-1.44-.59-1.25-.05-2.74,1.2-3.33l18.51-8.71c1.25-.59,2.74-.05,3.33,1.2.59,1.25.05,2.74-1.2,3.33l-18.51,8.71c-.34.16-.71.24-1.06.24Z"/>
    </g>
  </g>
</svg>