<?xml version="1.0" encoding="UTF-8"?>
<svg id="Layer_2" data-name="Layer 2" xmlns="http://www.w3.org/2000/svg" viewBox="0 0 578.32 485.79">
  <defs>
    <style>
      .cls-1 {
        fill: #ae0000;
      }

      .cls-2 {
        fill: #e80000;
      }
    </style>
  </defs>
  <g id="Layer_1-2" data-name="Layer 1">
    <g>
      <g>
        <polygon class="cls-2" points="156.9 346.34 160.5 359.43 156.77 346.38 156.9 346.34"/>
        <path class="cls-1" d="M446.13,367.68c-5.26,2.56-11.01,3.81-17.15,3.81-4.99,0-10.19-.82-15.61-2.37h-.1c.36-.13.72-.3,1.08-.46,22.35-10.98,6.28-89.55-35.92-175.45-42.19-85.9-94.51-146.63-116.85-135.65l-1.08.59s.07-.1.1-.13c4.63-11.67,11.67-20.34,21.16-25.01,40.39-19.85,109.92,39.01,155.33,131.41,45.38,92.41,49.42,183.4,9.04,203.25Z"/>
        <g>
          <path class="cls-2" d="M400.05,368.07c-42.06-2.73-84.38.13-125.73,8.6l-91.28,15.13-42.21-101.02,15.94,55.61,3.73,13.04,27.3,99.65c1.85,6.46-1.93,13.21-8.39,15.01l-39.8,11.24c-6.46,1.85-13.21-1.93-15.06-8.43l-18.03-66.09-42.27,8.6c-9.48,1.93-19.04-2.77-23.32-11.45L2.19,328.98c-4.28-8.64-2.14-19.12,5.2-25.41l52.94-44.34,37.51,113.81-25.87-125.25,83.46-72.05,63.22,119.73-51.18-128.12c14.93-13.38,38.41-38.04,51.54-53.22,12.33-14.3,23.82-29.36,34.35-45.08-7.8,26.88,9.23,92.94,44.12,163.94,34.81,70.88,76.49,124.6,102.58,135.08Z"/>
          <line class="cls-2" x1="156.77" y1="346.38" x2="156.9" y2="346.34"/>
        </g>
      </g>
      <path class="cls-2" d="M406.85,61.59c-3,0-5.99-1.19-8.2-3.55-4.26-4.53-4.04-11.66.49-15.91L440.69,3.06c4.53-4.26,11.66-4.04,15.92.49,4.26,4.53,4.04,11.66-.49,15.91l-41.55,39.07c-2.18,2.04-4.95,3.06-7.71,3.06Z"/>
      <path class="cls-2" d="M502.32,266.14c-6.06,0-11.06-4.82-11.25-10.91-.19-6.21,4.69-11.41,10.91-11.6l64.74-1.99c6.42-.08,11.41,4.7,11.6,10.91.19,6.21-4.69,11.41-10.91,11.6l-64.74,1.99c-.12,0-.24,0-.35,0Z"/>
      <path class="cls-2" d="M480.54,147.78c-4.23,0-8.28-2.39-10.19-6.47-2.65-5.63-.23-12.33,5.39-14.98l83.37-39.23c5.63-2.64,12.34-.23,14.98,5.39,2.65,5.63.23,12.33-5.39,14.98l-83.37,39.23c-1.55.73-3.18,1.07-4.79,1.07Z"/>
    </g>
  </g>
</svg>